PathFileType	4	(X/Y/Z)	./resultDataOpenSim/trcMotMarkerGrf/sub10/qtm-12-02.trc
DataRate	CameraRate	NumFrames	NumMarkers	Units	OrigDataRate	OrigDataStartFrame	OrigNumFrames
250.000000	250.000000	9	24	m	250.000000	231	461
Frame#	Time	L.Toe.Tip			R.Toe.Tip			L.Ankle.Lat			R.Ankle.Lat			L.Ankle.Med			R.Ankle.Med			L.Heel			R.Heel			L.Knee.Lat			R.Knee.Lat			L.Knee.Med			R.Knee.Med			L.Thigh.Upper			R.Thigh.Upper			L.ASIS			R.ASIS			V.Sacral			L.Acromium			R.Acromium			C7			L.Elbow			R.Elbow			L.Wrist.Lat			R.Wrist.Lat
		X1	Y1	Z1	X2	Y2	Z2	X3	Y3	Z3	X4	Y4	Z4	X5	Y5	Z5	X6	Y6	Z6	X7	Y7	Z7	X8	Y8	Z8	X9	Y9	Z9	X10	Y10	Z10	X11	Y11	Z11	X12	Y12	Z12	X13	Y13	Z13	X14	Y14	Z14	X15	Y15	Z15	X16	Y16	Z16	X17	Y17	Z17	X18	Y18	Z18	X19	Y19	Z19	X20	Y20	Z20	X21	Y21	Z21	X22	Y22	Z22	X23	Y23	Z23	X24	Y24	Z24

231	0.92	-0.0017416429	0.017024169	-0.091143755	0.41716709	0.11160074	0.13618632	-0.13466626	0.045247537	-0.12302827	0.27391156	0.11705413	0.14545099	-0.12892226	0.069519686	-0.039288007	0.30799726	0.13777327	0.06334985	-0.20298709	0.018322795	-0.081552718	0.23772129	0.080593146	0.092947349	-0.033752701	0.41739089	-0.15806376	0.29367455	0.51665296	0.13306847	-0.040023916	0.40167141	-0.038415832	0.31440029	0.5228897	0.0081677587	0.035470404	0.81048254	-0.22818818	0.049709859	0.84142101	0.15441462	0.098196014	0.91879117	-0.16420573	0.11267994	0.93674824	0.076735423	-0.096422117	0.93940152	-0.030916833	0.091878645	1.387261	-0.20987941	0.032897002	1.4061424	0.10220713	-0.015634736	1.4251383	-0.07504155	0.045249345	1.0474803	-0.30432939	-0.12714767	1.1115477	0.19758675	0.25045474	0.92546439	-0.37488553	-0.074473498	0.9620619	0.3888706
232	0.924	-0.001709836	0.017059863	-0.091171623	0.43839624	0.11241121	0.1342019	-0.13462876	0.04567576	-0.12265785	0.29495854	0.11459833	0.14489304	-0.12844634	0.070120225	-0.039095831	0.32787114	0.13659922	0.062725536	-0.20281323	0.019033416	-0.080843485	0.25932612	0.077564321	0.092422316	-0.032559663	0.41764082	-0.15816563	0.30056034	0.51532811	0.13331174	-0.038792007	0.40189263	-0.038535461	0.32134524	0.52140877	0.0086270532	0.04000568	0.80995594	-0.22819631	0.057884231	0.84156412	0.15468005	0.10376602	0.91829037	-0.16470067	0.11999382	0.9365317	0.076560157	-0.090609674	0.93862454	-0.029233009	0.098238752	1.3870606	-0.20963824	0.039473187	1.4055024	0.10240666	-0.0091310751	1.4245654	-0.074528178	0.05402522	1.0470101	-0.30483534	-0.12238126	1.1121931	0.19755457	0.26133427	0.92820779	-0.37458278	-0.07363522	0.96259192	0.3896179
233	0.928	-0.0016310151	0.01706523	-0.091207951	0.45929256	0.1132955	0.13205691	-0.13466344	0.046152702	-0.12218483	0.31575135	0.1124385	0.14419275	-0.12787089	0.07077979	-0.038828465	0.3474271	0.13571829	0.062022472	-0.20263904	0.019820431	-0.080066408	0.28056513	0.074986635	0.091844038	-0.031355581	0.41795478	-0.15828452	0.30743039	0.5137393	0.13359141	-0.037530314	0.40222136	-0.038511671	0.32835679	0.51970207	0.0091248682	0.044407682	0.80936804	-0.22832698	0.066118753	0.84164134	0.15493315	0.10934137	0.91771393	-0.16521462	0.12736296	0.93625796	0.076385711	-0.084799536	0.93784794	-0.027546862	0.10456689	1.3868185	-0.20938525	0.045988864	1.4048056	0.10262065	-0.0026639644	1.4239212	-0.074101538	0.062637675	1.046519	-0.30517397	-0.11783761	1.1127962	0.19752695	0.27211391	0.93094815	-0.37422942	-0.072720622	0.9631134	0.39027002
234	0.932	-0.0015492539	0.017053769	-0.091224884	0.47981879	0.11425055	0.12974575	-0.13473816	0.046691798	-0.1216188	0.33624905	0.11051379	0.14331655	-0.12724437	0.071477246	-0.038473816	0.36662598	0.13513235	0.061240058	-0.20247701	0.020695765	-0.079235227	0.30139341	0.07284609	0.091230708	-0.030146351	0.41831669	-0.15840357	0.31430473	0.5119041	0.13390216	-0.036172045	0.4026353	-0.038366081	0.33541157	0.51778886	0.0096368221	0.048795725	0.80873808	-0.22847739	0.074414709	0.84163879	0.15516192	0.11490773	0.91706329	-0.16575802	0.13479435	0.93592587	0.076208264	-0.078988491	0.93707075	-0.025858536	0.11087514	1.386523	-0.20912882	0.052466589	1.4040504	0.10283993	0.0037724293	1.4232104	-0.07373175	0.071135536	1.0460038	-0.30544258	-0.11351242	1.1133694	0.19750837	0.28278939	0.93368047	-0.37383257	-0.071757921	0.9636189	0.39083131
235	0.936	-0.0014840743	0.017029214	-0.091231164	0.49991818	0.11529725	0.12726083	-0.1347931	0.047303147	-0.12100571	0.35641455	0.10881119	0.14230494	-0.12661904	0.072193169	-0.03804738	0.38543398	0.13483191	0.060408211	-0.20231347	0.021660351	-0.078358006	0.32176649	0.071116077	0.090611503	-0.028926403	0.41870508	-0.15850256	0.32117925	0.50984968	0.13424828	-0.034601278	0.40307399	-0.038192016	0.34250132	0.51569315	0.010099944	0.053306864	0.80812371	-0.22854976	0.082762859	0.84153883	0.1553525	0.12047237	0.91635095	-0.16632025	0.14230415	0.9355367	0.076024119	-0.073172399	0.93629235	-0.024169348	0.11718875	1.3861767	-0.20887503	0.058955654	1.4032447	0.10305616	0.010192869	1.4224422	-0.073378833	0.079572651	1.0454669	-0.30574939	-0.10924856	1.1139065	0.1974767	0.29334249	0.93638453	-0.37340058	-0.070765688	0.96410324	0.39130914
236	0.94	-0.0014355335	0.016986412	-0.091250959	0.51952093	0.1164887	0.12460319	-0.13478742	0.047985145	-0.12040547	0.37622136	0.10738937	0.14126909	-0.12599687	0.072918542	-0.037578227	0.40382235	0.13479682	0.0595807	-0.2021376	0.022708785	-0.077466116	0.34164082	0.069756109	0.090007378	-0.027673103	0.41910259	-0.15856417	0.3280522	0.5076166	0.13463111	-0.032751042	0.40347688	-0.038055629	0.34964418	0.51345231	0.01045963	0.057979242	0.80758838	-0.22854207	0.091153685	0.84133635	0.15549749	0.12606022	0.91559369	-0.16687523	0.14990345	0.93509396	0.075822995	-0.067353622	0.93551309	-0.022481702	0.12352086	1.385792	-0.20862281	0.065468442	1.4023902	0.10327574	0.016597947	1.4216259	-0.073062816	0.087966905	1.0449124	-0.3061256	-0.10481423	1.1143818	0.19739413	0.30376291	0.93904608	-0.37293956	-0.069705861	0.96456489	0.39170155
237	0.944	-0.0013984121	0.016927405	-0.091290378	0.53855499	0.11788677	0.12178748	-0.13469898	0.048722069	-0.11986376	0.39564739	0.10630555	0.14029344	-0.12535094	0.073652978	-0.037087365	0.42176322	0.13500804	0.058798271	-0.20195945	0.023828081	-0.07662853	0.36098635	0.068714875	0.08941301	-0.0263494	0.41949977	-0.15857714	0.33494481	0.50525631	0.13504563	-0.0306287	0.40381138	-0.037948256	0.35684365	0.51110681	0.010720724	0.062781685	0.80715112	-0.22850802	0.099586448	0.84103497	0.15560074	0.13169072	0.91479914	-0.16740349	0.15759525	0.93459899	0.075592375	-0.061550864	0.93473588	-0.020799428	0.12986578	1.3853799	-0.20836163	0.072003169	1.4014913	0.10351078	0.022973059	1.4207696	-0.072837716	0.096318956	1.0443405	-0.30655746	-0.10006364	1.1147681	0.19721371	0.31406633	0.94167452	-0.37244187	-0.068487284	0.96499837	0.39200067
238	0.948	-0.0013667578	0.016867664	-0.091329907	0.55695685	0.11953472	0.11884307	-0.1344966	0.049488111	-0.11939757	0.41463297	0.1055587	0.13938641	-0.12467709	0.074401849	-0.036573309	0.43922261	0.13544924	0.058068448	-0.20179925	0.024996801	-0.075913704	0.37979385	0.067937429	0.088803419	-0.024908552	0.41989438	-0.1585342	0.34189855	0.5028271	0.13549016	-0.028256938	0.40406914	-0.037824945	0.36405098	0.50868909	0.010931577	0.067673569	0.80677394	-0.22849039	0.1080607	0.84063501	0.15567121	0.13736427	0.91395997	-0.16790492	0.16538102	0.93405136	0.075328651	-0.055801658	0.93396722	-0.019125103	0.13621195	1.3849432	-0.20807591	0.078569135	1.400557	0.10376566	0.029316576	1.4198817	-0.072699627	0.10462375	1.0437479	-0.30702335	-0.095003605	1.1150441	0.19689396	0.3242846	0.94429083	-0.37188555	-0.06703845	0.96539558	0.39220813
239	0.952	-0.0013326297	0.016821594	-0.091349479	0.57468362	0.12145062	0.11581676	-0.13415917	0.050263629	-0.1189918	0.43305689	0.10511111	0.13852962	-0.12399712	0.075170289	-0.036013685	0.45615027	0.13609121	0.05737272	-0.20165363	0.02619652	-0.075317558	0.39805905	0.067370791	0.088163286	-0.02330226	0.42028507	-0.15843422	0.34895218	0.50038511	0.13596726	-0.02563545	0.40425103	-0.037651526	0.37120619	0.50622493	0.011125461	0.072612255	0.80640139	-0.22848867	0.11656274	0.84012877	0.15571563	0.14307122	0.9130641	-0.16838671	0.17326066	0.93345426	0.075037048	-0.050130805	0.93321316	-0.017451018	0.14255586	1.3844775	-0.20775814	0.08516806	1.399591	0.10403659	0.03565547	1.4189717	-0.072552425	0.11287562	1.0431362	-0.30750185	-0.089755325	1.1151865	0.1964486	0.33443873	0.94690389	-0.37125178	-0.06535036	0.96575464	0.3923345
